<svg width="24" height="25" viewBox="0 0 24 25" fill="none" xmlns="http://www.w3.org/2000/svg">
<path id="Vector" d="M12 0.833374C18.44 0.833374 23.6667 6.06004 23.6667 12.5C23.6667 18.9517 18.44 24.1667 12 24.1667C5.54837 24.1667 0.333374 18.9517 0.333374 12.5C0.333374 6.06004 5.54837 0.833374 12 0.833374ZM16.4917 8.66171C16.62 8.25337 16.2467 7.86837 15.8384 7.99671L9.86504 9.86337C9.62004 9.94504 9.42171 10.1317 9.35171 10.3767L7.48504 16.3617C7.35671 16.7584 7.74171 17.1434 8.13837 17.015L14.0884 15.1484C14.3334 15.0784 14.5317 14.88 14.6017 14.635L16.4917 8.66171Z" fill="#19191B"/>
</svg>
