<svg width="25" height="25" viewBox="0 0 25 25" fill="none" xmlns="http://www.w3.org/2000/svg">
<g id="Game">
<path id="Fill 1" fill-rule="evenodd" clip-rule="evenodd" d="M8.67285 17.6295C8.2071 17.6295 7.8291 17.2515 7.8291 16.7858V12.5726C7.8291 12.1069 8.2071 11.7289 8.67285 11.7289C9.1386 11.7289 9.5166 12.1069 9.5166 12.5726V16.7858C9.5166 17.2515 9.1386 17.6295 8.67285 17.6295Z" fill="#61646B"/>
<path id="Fill 3" fill-rule="evenodd" clip-rule="evenodd" d="M10.8223 15.5223H6.52368C6.05793 15.5223 5.67993 15.1443 5.67993 14.6786C5.67993 14.2128 6.05793 13.8348 6.52368 13.8348H10.8223C11.2881 13.8348 11.6661 14.2128 11.6661 14.6786C11.6661 15.1443 11.2881 15.5223 10.8223 15.5223Z" fill="#61646B"/>
<path id="Fill 5" fill-rule="evenodd" clip-rule="evenodd" d="M16.0056 13.5448H15.8853C15.4195 13.5448 15.0415 13.1668 15.0415 12.701C15.0415 12.2353 15.4195 11.8573 15.8853 11.8573H16.0056C16.4714 11.8573 16.8494 12.2353 16.8494 12.701C16.8494 13.1668 16.4714 13.5448 16.0056 13.5448Z" fill="#61646B"/>
<path id="Fill 7" fill-rule="evenodd" clip-rule="evenodd" d="M18.0459 17.5658H17.9255C17.4598 17.5658 17.0818 17.1878 17.0818 16.722C17.0818 16.2563 17.4598 15.8783 17.9255 15.8783H18.0459C18.5117 15.8783 18.8897 16.2563 18.8897 16.722C18.8897 17.1878 18.5117 17.5658 18.0459 17.5658Z" fill="#61646B"/>
<g id="Group 11">
<mask id="mask0_456_1575" style="mask-type:luminance" maskUnits="userSpaceOnUse" x="6" y="0" width="8" height="7">
<path id="Clip 10" fill-rule="evenodd" clip-rule="evenodd" d="M6.95581 0.125H13.7508V6.41139H6.95581V0.125Z" fill="white"/>
</mask>
<g mask="url(#mask0_456_1575)">
<path id="Fill 9" fill-rule="evenodd" clip-rule="evenodd" d="M12.9071 6.41138C12.4413 6.41138 12.0633 6.03338 12.0633 5.56763V4.80825C12.0599 3.99375 11.3692 3.32438 10.5243 3.321H9.33856C8.02569 3.321 6.95581 2.26575 6.95581 0.968628C6.95581 0.502878 7.33381 0.124878 7.79956 0.124878C8.26644 0.124878 8.64331 0.502878 8.64331 0.968628C8.64331 1.33538 8.95494 1.6335 9.33856 1.6335H10.5277C12.2973 1.63913 13.7429 3.06113 13.7508 4.80375V5.56763C13.7508 6.03338 13.3728 6.41138 12.9071 6.41138Z" fill="#61646B"/>
</g>
</g>
<g id="Group 14">
<mask id="mask1_456_1575" style="mask-type:luminance" maskUnits="userSpaceOnUse" x="0" y="5" width="25" height="20">
<path id="Clip 13" fill-rule="evenodd" clip-rule="evenodd" d="M0.125244 5.04492H24.3125V24.3125H0.125244V5.04492Z" fill="white"/>
</mask>
<g mask="url(#mask1_456_1575)">
<path id="Fill 12" fill-rule="evenodd" clip-rule="evenodd" d="M12.1639 6.73214C10.5034 6.73214 8.86312 6.74677 7.25212 6.77377C4.09424 6.77377 1.81274 8.99902 1.81274 12.0635V17.2948C1.81274 20.3581 4.09424 22.5834 7.23862 22.5834C10.554 22.6385 13.8964 22.6385 17.1859 22.5834H17.2005C20.3437 22.5834 22.6252 20.3581 22.6252 17.2948V12.0635C22.6252 8.99902 20.3437 6.77377 17.2005 6.77377C15.5085 6.74677 13.8266 6.73214 12.1639 6.73214ZM12.2235 24.3125C10.5551 24.3125 8.88449 24.2979 7.22399 24.2709C3.11662 24.2709 0.125244 21.3358 0.125244 17.2948V12.0635C0.125244 8.02139 3.11662 5.08627 7.23862 5.08627C10.4662 5.03114 13.8277 5.03114 17.214 5.08627C21.3214 5.08627 24.3127 8.02139 24.3127 12.0635V17.2948C24.3127 21.3335 21.3259 24.2675 17.2072 24.2709C15.5557 24.2979 13.8907 24.3125 12.2235 24.3125Z" fill="#61646B"/>
</g>
</g>
</g>
</svg>
