<svg width="25" height="23" viewBox="0 0 25 23" fill="none" xmlns="http://www.w3.org/2000/svg">
<g id="Heart">
<g id="Group 3">
<mask id="mask0_456_1553" style="mask-type:luminance" maskUnits="userSpaceOnUse" x="0" y="-1" width="25" height="24">
<path id="Clip 2" fill-rule="evenodd" clip-rule="evenodd" d="M0.333374 -0.00012207H24.218V22.751H0.333374V-0.00012207Z" fill="white"/>
</mask>
<g mask="url(#mask0_456_1553)">
<path id="Fill 1" fill-rule="evenodd" clip-rule="evenodd" d="M2.46108 10.6435C4.09675 15.7325 10.5589 19.8473 12.2762 20.8658C13.9994 19.8368 20.5082 15.6765 22.0914 10.6482C23.1309 7.39785 22.1661 3.28068 18.3324 2.04518C16.4751 1.44902 14.3086 1.81185 12.8129 2.96918C12.5002 3.20952 12.0662 3.21418 11.7512 2.97618C10.1669 1.78502 8.09725 1.43618 6.21075 2.04518C2.38291 3.27952 1.42158 7.39668 2.46108 10.6435ZM12.2774 22.7512C12.1327 22.7512 11.9892 22.7162 11.8586 22.645C11.4934 22.4455 2.89158 17.7042 0.795079 11.1778C0.793913 11.1778 0.793913 11.1767 0.793913 11.1767C-0.522087 7.06768 0.943246 1.90402 5.67408 0.379182C7.89541 -0.339484 10.3162 -0.0233177 12.2739 1.21218C14.1709 0.012849 16.6909 -0.318484 18.8679 0.379182C23.6034 1.90635 25.0734 7.06885 23.7586 11.1767C21.7297 17.6283 13.0649 22.4408 12.6974 22.6427C12.5667 22.715 12.4221 22.7512 12.2774 22.7512Z" fill="#61646B"/>
</g>
</g>
<path id="Fill 4" fill-rule="evenodd" clip-rule="evenodd" d="M19.1794 8.89573C18.7279 8.89573 18.3452 8.54923 18.3079 8.0919C18.2309 7.1329 17.5892 6.32323 16.6757 6.02807C16.2149 5.87873 15.9629 5.38523 16.1111 4.92673C16.2616 4.46707 16.7504 4.2174 17.2124 4.36207C18.8026 4.87657 19.9167 6.28473 20.0532 7.94957C20.0917 8.4314 19.7336 8.85373 19.2517 8.89223C19.2272 8.89457 19.2039 8.89573 19.1794 8.89573Z" fill="#61646B"/>
</g>
</svg>
