<svg width="160" height="116" viewBox="0 0 160 116" fill="none" xmlns="http://www.w3.org/2000/svg">
<rect x="1.0001" y="0.9" width="157.5" height="113.4" rx="6.3" fill="#EFEFF0"/>
<rect x="1.0001" y="0.9" width="157.5" height="113.4" rx="6.3" stroke="#AFB1B6" stroke-width="1.8"/>
<mask id="mask0_371_13278" style="mask-type:luminance" maskUnits="userSpaceOnUse" x="71" y="49" width="19" height="18">
<path fill-rule="evenodd" clip-rule="evenodd" d="M71.1003 49.0003H89.064V66.9551H71.1003V49.0003Z" fill="white"/>
</mask>
<g mask="url(#mask0_371_13278)">
<path fill-rule="evenodd" clip-rule="evenodd" d="M76.1853 50.3501C73.9164 50.3501 72.4503 51.9044 72.4503 54.3092V61.646C72.4503 64.0517 73.9164 65.6051 76.1853 65.6051H83.9703C86.2446 65.6051 87.7143 64.0517 87.7143 61.646V54.3092C87.7143 51.9044 86.2446 50.3501 83.9703 50.3501H76.1853ZM83.9703 66.9551H76.1853C73.1433 66.9551 71.1003 64.8212 71.1003 61.646V54.3092C71.1003 51.134 73.1433 49.0001 76.1853 49.0001H83.9703C87.0168 49.0001 89.0643 51.134 89.0643 54.3092V61.646C89.0643 64.8212 87.0168 66.9551 83.9703 66.9551Z" fill="#61646B"/>
</g>
<path fill-rule="evenodd" clip-rule="evenodd" d="M74.0532 62.6625C73.8858 62.6625 73.7193 62.6013 73.5888 62.4771C73.3179 62.2215 73.3071 61.7931 73.5636 61.524L74.9388 60.0723C75.6669 59.2992 76.8954 59.2614 77.6721 59.9904L78.5343 60.8652C78.7746 61.1082 79.1652 61.1127 79.4064 60.8751C79.4973 60.768 81.4575 58.3875 81.4575 58.3875C81.8301 57.9357 82.3557 57.6567 82.9398 57.5991C83.5248 57.5478 84.0927 57.7179 84.5454 58.0896C84.5841 58.1211 84.6192 58.1517 86.5956 60.1812C86.8557 60.4476 86.8512 60.8751 86.5839 61.1352C86.3175 61.3971 85.8891 61.389 85.629 61.1226C85.629 61.1226 83.7849 59.2299 83.6535 59.1021C83.514 58.9878 83.2899 58.9212 83.0694 58.9428C82.8453 58.9653 82.6437 59.0724 82.5006 59.2461C80.409 61.7832 80.3838 61.8075 80.3496 61.8408C79.5774 62.5986 78.3309 62.586 77.5722 61.812C77.5722 61.812 76.7352 60.9624 76.7208 60.9453C76.5129 60.7527 76.1421 60.7653 75.9198 61.0002L74.5428 62.4519C74.4096 62.5923 74.2314 62.6625 74.0532 62.6625Z" fill="#61646B"/>
<path fill-rule="evenodd" clip-rule="evenodd" d="M77.0017 54.5161C76.504 54.5161 76.099 54.9211 76.099 55.4197C76.099 55.9183 76.504 56.3242 77.0026 56.3242C77.5012 56.3242 77.9071 55.9183 77.9071 55.4197C77.9071 54.922 77.5012 54.517 77.0017 54.5161ZM77.0026 57.6742C75.7597 57.6742 74.749 56.6626 74.749 55.4197C74.749 54.1768 75.7597 53.1661 77.0026 53.1661C78.2464 53.167 79.2571 54.1786 79.2571 55.4197C79.2571 56.6626 78.2455 57.6742 77.0026 57.6742Z" fill="#61646B"/>
</svg>
