<svg width="21" height="21" viewBox="0 0 21 21" fill="none" xmlns="http://www.w3.org/2000/svg">
<path fill-rule="evenodd" clip-rule="evenodd" d="M10.7188 7.4375C9.87437 7.4375 9.1875 8.12437 9.1875 8.96962C9.1875 9.814 9.87437 10.5 10.7188 10.5C11.5631 10.5 12.25 9.814 12.25 8.96962C12.25 8.12437 11.5631 7.4375 10.7188 7.4375ZM10.7188 11.8125C9.15075 11.8125 7.875 10.5376 7.875 8.96962C7.875 7.40075 9.15075 6.125 10.7188 6.125C12.2867 6.125 13.5625 7.40075 13.5625 8.96962C13.5625 10.5376 12.2867 11.8125 10.7188 11.8125Z" fill="white"/>
<mask id="mask0_579_3071" style="mask-type:luminance" maskUnits="userSpaceOnUse" x="3" y="1" width="15" height="18">
<path fill-rule="evenodd" clip-rule="evenodd" d="M3.5 1.75H17.9371V18.8125H3.5V1.75Z" fill="white"/>
</mask>
<g mask="url(#mask0_579_3071)">
<path fill-rule="evenodd" clip-rule="evenodd" d="M10.7188 3.0625C7.462 3.0625 4.8125 5.73738 4.8125 9.02388C4.8125 13.2055 9.7335 17.2795 10.7188 17.4965C11.704 17.2786 16.625 13.2046 16.625 9.02388C16.625 5.73738 13.9755 3.0625 10.7188 3.0625ZM10.7188 18.8125C9.149 18.8125 3.5 13.9545 3.5 9.02387C3.5 5.01287 6.73838 1.75 10.7188 1.75C14.6991 1.75 17.9375 5.01287 17.9375 9.02387C17.9375 13.9545 12.2885 18.8125 10.7188 18.8125Z" fill="white"/>
</g>
</svg>
