<svg width="80" height="83" viewBox="0 0 80 83" fill="none" xmlns="http://www.w3.org/2000/svg">
<path d="M43.5986 10.125C51.8486 11.25 60.8486 14.625 65.7236 24" stroke="#0065B0" stroke-width="3.75" stroke-linecap="round"/>
<path d="M33 70.125C23.2709 67.9392 13.875 61.5 10.8023 49.1489" stroke="#145AA6" stroke-width="3.75" stroke-linecap="round"/>
<path d="M39.375 75.3749C31.5001 76.125 22.1525 71.5505 16.125 65.625" stroke="#75B877" stroke-width="5.25" stroke-linecap="round"/>
<path d="M15.375 64.5C8.59495 58.2612 4.38667 47.066 6.66302 34.6214" stroke="#4CCDE5" stroke-width="3.75" stroke-linecap="round"/>
<path d="M31.2236 37.5L30.8486 39.375" stroke="#73D3ED" stroke-width="3.75" stroke-linecap="round"/>
<path d="M21.4735 35.25L21.0985 37.125" stroke="#73D3ED" stroke-width="3.75" stroke-linecap="round"/>
<path d="M19.5001 58.5092L21.0719 60.1466" stroke="#73D3ED" stroke-width="3.75" stroke-linecap="round"/>
<path d="M59.3486 46.5C58.447 49.6427 57.752 51.1914 55.9736 53.625" stroke="#183774" stroke-width="3.75" stroke-linecap="round"/>
<path d="M45.4735 25.2909C41.3486 24.375 39.5518 24.7732 37.9736 25.2909" stroke="#73D3ED" stroke-width="3.75" stroke-linecap="round"/>
<path d="M55.2236 46.5L54.8486 48.375" stroke="#73D3ED" stroke-width="3.75" stroke-linecap="round"/>
<path d="M55.2236 46.5L54.8486 48.375" stroke="#73D3ED" stroke-width="3.75" stroke-linecap="round"/>
<path d="M44.3486 32.625C38.3228 30.4999 34.2236 33 31.5986 36.375" stroke="#008FC6" stroke-width="3.75" stroke-linecap="round"/>
<path d="M30.5676 53.8303C24.0987 50.25 24.0806 45.4426 24.0987 41.25" stroke="#2297CB" stroke-width="3.75" stroke-linecap="round"/>
<path d="M45.8486 25.5C53.3486 28.875 57.4736 34.5 55.9736 45.375" stroke="#19A465" stroke-width="3.75" stroke-linecap="round"/>
<path d="M54.0986 49.875C49.2236 57 43.0184 59.6872 32.7236 55.875" stroke="#2755B0" stroke-width="3.75" stroke-linecap="round"/>
<path d="M24.3608 41.2732C23.7235 33.375 28.2235 26.625 37.5985 25.125" stroke="#2A4D93" stroke-width="3.75" stroke-linecap="round"/>
<path d="M46.2236 21.75C55.9736 24.75 61.9736 34.875 59.4871 45.7856" stroke="#2090C8" stroke-width="3.75" stroke-linecap="round"/>
<path d="M21.8485 33.75C25.2235 24 33.4457 20.276 44.9929 21.5482" stroke="#195FAA" stroke-width="3.75" stroke-linecap="round"/>
<path d="M19.4857 29.8545C24.3607 21.6045 30.4736 17.25 43.5986 17.625" stroke="#2254A6" stroke-width="3.75" stroke-linecap="round"/>
<path d="M16.3794 21.75C22.2244 13.6711 32.1266 9.22353 44.7858 10.1481" stroke="#3364B5" stroke-width="3.75" stroke-linecap="round"/>
<path d="M70.875 47.625C68.625 57 62.6672 63.6579 55.279 67.9979" stroke="#57D7EF" stroke-width="3.75" stroke-linecap="round"/>
<path d="M10.5986 48.375C8.05854 38.7324 10.1941 27.4354 18.9368 18.2335" stroke="#008FC6" stroke-width="3.75" stroke-linecap="round"/>
<path d="M55.5 67.5C48.7969 72.4416 36.375 74.25 25.125 67.5" stroke="#4CCDE5" stroke-width="3.75" stroke-linecap="round"/>
<path d="M42.75 71.25C37.875 72.75 30 71.25 24.375 67.125" stroke="#6ED2A0" stroke-width="3.75" stroke-linecap="round"/>
<path d="M13.5 19.125C19.6206 11.625 30.0908 5.82544 42.75 6.75" stroke="#2090C8" stroke-width="3.75" stroke-linecap="round"/>
<path d="M6.375 35.25C7.125 28.5 13.718 17.0151 20.25 13.5" stroke="#2A4D93" stroke-width="3.75" stroke-linecap="round"/>
<path d="M5.78894 45.1621C4.45392 38.503 7.11191 25.8485 12.2682 20.516" stroke="#75B877" stroke-width="5.25" stroke-linecap="round"/>
<path d="M59.25 11.6818C69.75 18 74.625 28.125 74.625 42.4318" stroke="#2090C8" stroke-width="3.75" stroke-linecap="round"/>
<path d="M74.25 37.125C76.125 50.25 69.75 63 60.375 69" stroke="#0159B9" stroke-width="3.75" stroke-linecap="round"/>
<path d="M67.2236 46.125C64.9736 56.25 59.8276 62.4804 48.2452 66.985" stroke="#104190" stroke-width="3.75" stroke-linecap="round"/>
<path d="M17.2769 26.25C22.9323 17.5832 32.5712 12.8538 44.9351 13.929" stroke="#2090C8" stroke-width="3.75" stroke-linecap="round"/>
<path d="M42.4736 13.875C53.2501 15 62.3486 20.25 65.7236 32.25" stroke="#008548" stroke-width="3.75" stroke-linecap="round"/>
<path d="M60.8486 29.25C65.7904 39.4194 64.406 50.0573 56.4181 58.1611" stroke="#004EA3" stroke-width="3.75" stroke-linecap="round"/>
<path d="M34.9736 18.375C44.7236 15.75 55.2236 19.5 60.3793 28.4256" stroke="#4CCDE5" stroke-width="3.75" stroke-linecap="round"/>
<path d="M55.6174 53.8999C50.3487 61.125 39.0987 64.125 29.3487 57.75" stroke="#2297CB" stroke-width="3.75" stroke-linecap="round"/>
<path d="M60.0713 54C57.3306 59.3243 50.4028 63.1701 45.7453 64.4862" stroke="#75B877" stroke-width="3.75" stroke-linecap="round"/>
<path d="M41.7236 31.962C51.4736 33.75 51.4736 45 45.4736 48.375" stroke="#6ED2A0" stroke-width="3.75" stroke-linecap="round"/>
<path d="M46.5784 47.6548C39.9435 54.1768 30.4546 47.7304 30.7628 41.1525" stroke="#19A465" stroke-width="3.75" stroke-linecap="round"/>
<path d="M47.3486 51.75C38.6 57.325 27.4736 50.625 27.4736 42.375" stroke="#4CCDE5" stroke-width="3.75" stroke-linecap="round"/>
<path d="M27.4736 43.2642C25.9736 31.5 37.9736 25.5 45.3163 29.472" stroke="#59BE90" stroke-width="3.75" stroke-linecap="round"/>
<path d="M45.3882 29.1519C56.2952 34.505 54.5546 47.8087 46.9607 51.6638" stroke="#008FC6" stroke-width="3.75" stroke-linecap="round"/>
<path d="M28.9736 58.125C23.3486 54.375 18.8486 48.375 20.7236 39" stroke="#6ED2A0" stroke-width="3.75" stroke-linecap="round"/>
<path d="M66.0986 33.375C68.5952 41.5343 67.4983 49.0536 63.0986 55.5" stroke="#6ED2A0" stroke-width="3.75" stroke-linecap="round"/>
<path d="M69.8369 33C71.625 42 71.6251 45.75 68.25 53.25" stroke="#008548" stroke-width="3.75" stroke-linecap="round"/>
<path d="M41.25 5.87161C52.2512 5.98925 60.75 9.99661 67.125 18.2466" stroke="#6ED2A0" stroke-width="5.25" stroke-linecap="round"/>
<path d="M19.8076 52.125C16.5985 46.875 15.4735 37.1249 19.8076 29.25" stroke="#75B877" stroke-width="3.75" stroke-linecap="round"/>
<path d="M37.5986 57.375C30.0986 55.875 27.4736 52.5 25.2236 48.375" stroke="#004A9B" stroke-width="3.75" stroke-linecap="round"/>
<path d="M44.3486 64.5H40.5986" stroke="#73D3ED" stroke-width="3.75" stroke-linecap="round"/>
<path d="M39.0986 64.5C31.5986 63.375 22.8228 61.5029 17.6914 48.7722" stroke="#154BA3" stroke-width="3.75" stroke-linecap="round"/>
<path d="M50.6685 66.0576C44.7236 69 32.7236 70.125 22.5986 61.5" stroke="#008FC6" stroke-width="3.75" stroke-linecap="round"/>
<path d="M50.6685 66.0576C44.7236 69 32.7236 70.125 22.5986 61.5" stroke="#008FC6" stroke-width="3.75" stroke-linecap="round"/>
<path d="M18.8485 57.375C12.8485 50.625 10.2235 34.5 18.8485 24.375" stroke="#008548" stroke-width="3.75" stroke-linecap="round"/>
<path d="M61.875 68.625C54.6825 75.6704 39.1093 78.5736 27.8924 73.845" stroke="#008548" stroke-width="5.25" stroke-linecap="round"/>
<path d="M58.875 15.75C65.625 21.75 68.8027 26.0756 70.5 36.75" stroke="#75B877" stroke-width="3.75" stroke-linecap="round"/>
<path d="M9.75 40.125V42.375" stroke="#6ED2A0" stroke-width="3.75" stroke-linecap="round"/>
<path d="M56.25 14.25L58.1154 15.5081" stroke="#19A465" stroke-width="3.75" stroke-linecap="round"/>
<path d="M21.7006 25.5L20.2501 27.5053" stroke="#6ED2A0" stroke-width="3.75" stroke-linecap="round"/>
<circle cx="40.2236" cy="40.875" r="7.875" fill="#0081C1"/>
</svg>
