<svg width="414" height="320" viewBox="0 0 414 320" fill="none" xmlns="http://www.w3.org/2000/svg">
<path d="M-1305.87 338.758C-1305.87 338.758 -1268.82 283.756 -1209.45 271.659C-1139.78 257.464 -1133.07 315.054 -1061.81 306.913C-987.381 298.41 -992.065 243.749 -917.814 233.606C-842.276 223.287 -830.996 278.488 -755.694 266.97C-684.825 256.131 -692.836 206.159 -622.042 195.013C-545.852 183.017 -533.334 238.413 -456.82 227.973C-381.603 217.709 -384.906 164.739 -309.724 154.261C-232.594 143.512 -218.897 200.308 -142.434 186.951C-74.4265 175.071 -84.6178 129.107 -17.0553 116.073C63.1505 100.601 82.0398 156.747 163.679 147.009C248.37 136.907 255.069 79.9412 339.732 69.5191C422.356 59.3481 440.864 108.742 523.569 100.05C613.852 90.5613 626.222 25.9319 716.168 20.4011C794.434 15.5885 876.122 61.35 876.122 61.35L879.469 87.0004L892.445 186.45L-1288.61 471.038L-1305.87 338.758Z" fill="white"/>
<path opacity="0.8" d="M-1305.87 348.758C-1305.87 348.758 -1268.82 293.756 -1209.45 281.659C-1139.78 267.464 -1133.07 325.054 -1061.81 316.913C-987.381 308.41 -992.065 253.749 -917.814 243.606C-842.276 233.287 -830.996 288.488 -755.694 276.97C-684.825 266.131 -692.836 216.159 -622.042 205.013C-545.852 193.017 -533.334 248.413 -456.82 237.973C-381.603 227.709 -384.906 174.739 -309.724 164.261C-232.594 153.512 -218.897 210.308 -142.434 196.951C-74.4265 185.071 -84.6178 139.107 -17.0553 126.073C63.1505 110.601 82.0398 166.747 163.679 157.009C248.37 146.907 255.069 89.9412 339.732 79.5191C422.356 69.3481 440.864 118.742 523.569 110.05C613.852 100.561 626.222 35.9319 716.168 30.4011C794.434 25.5885 876.122 71.35 876.122 71.35L879.469 97.0004L892.445 196.45L-1288.61 481.038L-1305.87 348.758Z" fill="#7CBEEA"/>
<path d="M-934.693 214.974C-934.693 214.974 -899.49 183.869 -849.434 179.279C-790.699 173.893 -789.967 208.462 -730.422 206.749C-668.231 204.959 -667.531 172.223 -605.348 169.45C-542.087 166.628 -537.384 199.976 -474.218 196.431C-414.77 193.095 -417.21 163.003 -357.8 159.481C-293.86 155.69 -288.15 189.209 -224.073 186.358C-161.081 183.556 -159.382 151.886 -96.4022 148.955C-31.7903 145.947 -25.2235 180.351 39.0557 175.762C96.2264 171.681 91.65 143.878 148.55 139.09C216.097 133.407 227.008 167.652 295.26 165.445C366.064 163.155 376.359 129.547 447.166 127.065C516.268 124.643 527.428 154.853 596.473 153.315C671.844 151.636 687.464 113.716 762.228 114.378C827.282 114.954 890.935 145.778 890.935 145.778L891.555 161.191L893.962 220.947L-931.492 294.457L-934.693 214.974Z" fill="white"/>
<path d="M-934.693 222.974C-934.693 222.974 -899.49 191.869 -849.434 187.279C-790.699 181.893 -789.967 216.462 -730.422 214.749C-668.231 212.959 -667.531 180.223 -605.348 177.45C-542.087 174.628 -537.384 207.976 -474.218 204.431C-414.77 201.095 -417.21 171.003 -357.8 167.481C-293.86 163.69 -288.15 197.209 -224.073 194.358C-161.081 191.556 -159.382 159.886 -96.4022 156.955C-31.7903 153.947 -25.2235 188.351 39.0557 183.762C96.2264 179.681 91.65 151.878 148.55 147.09C216.097 141.407 227.008 175.652 295.26 173.445C366.064 171.155 376.359 137.547 447.166 135.065C516.268 132.643 527.428 162.853 596.473 161.315C671.844 159.636 687.464 121.716 762.228 122.378C827.282 122.954 890.935 153.778 890.935 153.778L891.555 169.191L893.962 228.947L-931.492 302.457L-934.693 222.974Z" fill="#5AA8DC"/>
<path d="M-473.579 299.004C-473.579 299.004 -451.364 266.011 -415.536 258.494C-373.496 249.674 -369.268 283.988 -326.247 278.77C-281.314 273.321 -284.308 240.744 -239.486 234.317C-193.888 227.778 -186.909 260.644 -141.457 253.393C-98.6802 246.568 -103.669 216.804 -60.9392 209.796C-14.9518 202.255 -7.224 235.231 38.9633 228.615C84.3679 222.112 82.2141 190.535 127.597 183.904C174.155 177.101 182.599 210.907 228.748 202.552C269.792 195.121 263.498 167.758 304.271 159.641C352.674 150.006 364.252 183.397 413.538 177.174C464.666 170.719 468.541 136.709 519.651 130.063C569.53 123.577 580.859 152.943 630.791 147.338C685.298 141.22 692.577 102.611 746.893 98.8551C794.156 95.5871 843.637 122.466 843.637 122.466L845.736 137.747L853.873 196.996L-462.757 377.811L-473.579 299.004Z" fill="white"/>
<path d="M-473.579 307.004C-473.579 307.004 -451.364 274.011 -415.536 266.494C-373.496 257.674 -369.268 291.988 -326.247 286.77C-281.314 281.321 -284.308 248.744 -239.486 242.317C-193.888 235.778 -186.909 268.644 -141.457 261.393C-98.6802 254.568 -103.669 224.804 -60.9392 217.796C-14.9518 210.255 -7.224 243.231 38.9633 236.615C84.3679 230.112 82.2141 198.535 127.597 191.904C174.155 185.101 182.599 218.907 228.748 210.552C269.792 203.121 263.498 175.758 304.271 167.641C352.674 158.006 364.252 191.397 413.538 185.174C464.666 178.719 468.541 144.709 519.651 138.063C569.53 131.577 580.859 160.943 630.791 155.338C685.298 149.22 692.577 110.611 746.893 106.855C794.156 103.587 843.637 130.466 843.637 130.466L845.736 145.747L853.873 204.996L-462.757 385.811L-473.579 307.004Z" fill="#1B51A0"/>
<path d="M-394 254.49C-394 254.49 -370.154 233.044 -337.291 231.184C-298.729 229.002 -299.161 253.995 -260.166 254.49C-219.439 255.006 -218.119 231.378 -177.37 231.184C-135.916 230.986 -133.718 255.213 -92.3063 254.49C-53.3326 253.809 -54.136 232 -15.1816 231.184C26.7425 230.306 29.5947 254.685 71.5837 254.49C112.861 254.298 114.807 231.469 156.081 231.184C198.424 230.891 201.813 255.935 243.98 254.49C281.484 253.205 279.223 232.987 316.568 231.184C360.902 229.043 367.136 254.099 411.84 254.49C458.214 254.895 465.833 230.917 512.215 231.184C557.48 231.445 563.984 253.592 609.188 254.49C658.534 255.469 669.751 228.531 718.637 231.184C761.175 233.492 802 257.611 802 257.611V268.763V312H-394V254.49Z" fill="white"/>
<path d="M-394 262.49C-394 262.49 -370.154 241.044 -337.291 239.184C-298.729 237.002 -299.161 261.995 -260.166 262.49C-219.439 263.006 -218.119 239.378 -177.37 239.184C-135.916 238.986 -133.718 263.213 -92.3063 262.49C-53.3326 261.809 -54.136 240 -15.1816 239.184C26.7425 238.306 29.5947 262.685 71.5837 262.49C112.861 262.298 114.807 239.469 156.081 239.184C198.424 238.891 201.813 263.935 243.98 262.49C281.484 261.205 279.223 240.987 316.568 239.184C360.902 237.043 367.136 262.099 411.84 262.49C458.214 262.895 465.833 238.917 512.215 239.184C557.48 239.445 563.984 261.592 609.188 262.49C658.534 263.469 669.751 236.531 718.637 239.184C761.175 241.492 802 265.611 802 265.611V276.763V320H-394V262.49Z" fill="#0D408A"/>
</svg>
