<svg width="16" height="16" viewBox="0 0 16 16" fill="none" xmlns="http://www.w3.org/2000/svg">
<path fill-rule="evenodd" clip-rule="evenodd" d="M7.8332 3C7.77253 3 7.6232 3.01667 7.54386 3.17533L6.32653 5.60933C6.13386 5.994 5.76253 6.26133 5.3332 6.32267L2.60786 6.71533C2.42786 6.74133 2.36653 6.87467 2.34786 6.93067C2.3312 6.98467 2.30453 7.122 2.42853 7.24067L4.3992 9.134C4.7132 9.436 4.85586 9.87133 4.7812 10.2973L4.3172 12.9707C4.28853 13.138 4.3932 13.2353 4.43986 13.2687C4.4892 13.306 4.6212 13.38 4.78453 13.2947L7.2212 12.0313C7.6052 11.8333 8.06253 11.8333 8.4452 12.0313L10.8812 13.294C11.0452 13.3787 11.1772 13.3047 11.2272 13.2687C11.2739 13.2353 11.3785 13.138 11.3499 12.9707L10.8845 10.2973C10.8099 9.87133 10.9525 9.436 11.2665 9.134L13.2372 7.24067C13.3619 7.122 13.3352 6.984 13.3179 6.93067C13.2999 6.87467 13.2385 6.74133 13.0585 6.71533L10.3332 6.32267C9.90453 6.26133 9.5332 5.994 9.34053 5.60867L8.12186 3.17533C8.0432 3.01667 7.89386 3 7.8332 3ZM4.6312 14.3333C4.35586 14.3333 4.08253 14.2467 3.84853 14.076C3.44453 13.78 3.24653 13.2913 3.33253 12.7993L3.79653 10.126C3.81386 10.0267 3.77986 9.926 3.70653 9.85533L1.73586 7.962C1.3732 7.61467 1.2432 7.10133 1.39653 6.62467C1.5512 6.14267 1.96053 5.798 2.4652 5.726L5.19053 5.33333C5.29586 5.31867 5.38653 5.254 5.43186 5.162L6.64986 2.72733C6.87453 2.27867 7.32786 2 7.8332 2C8.33853 2 8.79186 2.27867 9.01653 2.72733L10.2352 5.16133C10.2812 5.254 10.3712 5.31867 10.4759 5.33333L13.2012 5.726C13.7059 5.798 14.1152 6.14267 14.2699 6.62467C14.4232 7.10133 14.2925 7.61467 13.9299 7.962L11.9592 9.85533C11.8859 9.926 11.8525 10.0267 11.8699 10.1253L12.3345 12.7993C12.4199 13.292 12.2219 13.7807 11.8172 14.076C11.4072 14.3767 10.8732 14.4173 10.4205 14.1813L7.9852 12.9193C7.88986 12.87 7.77586 12.87 7.68053 12.9193L5.2452 14.182C5.05053 14.2833 4.84053 14.3333 4.6312 14.3333Z" fill="black"/>
</svg>
