<svg width="414" height="481" viewBox="0 0 414 481" fill="none" xmlns="http://www.w3.org/2000/svg">
<path d="M1763.14 338.616C1763.14 338.616 1724.83 283.614 1663.44 271.517C1591.4 257.322 1584.46 314.912 1510.77 306.771C1433.81 298.268 1438.66 243.607 1361.88 233.464C1283.77 223.145 1272.1 278.346 1194.24 266.828C1120.96 255.989 1129.24 206.017 1056.04 194.871C977.254 182.875 964.31 238.271 885.192 227.831C807.414 217.567 810.829 164.597 733.089 154.119C653.333 143.37 639.17 200.166 560.104 186.809C489.782 174.93 500.32 128.965 430.458 115.931C347.522 100.459 327.99 156.605 243.572 146.867C155.998 136.766 149.071 79.7992 61.5262 69.3771C-23.9101 59.2061 -43.0483 108.601 -128.568 99.9082C-221.924 90.4194 -234.715 25.79 -327.723 20.2591C-408.653 15.4465 -493.121 61.208 -493.121 61.208L-496.582 86.8584L-510 186.308L1745.29 470.896L1763.14 338.616Z" fill="white"/>
<path opacity="0.8" d="M1762.71 348.616C1762.71 348.616 1724.4 293.614 1663 281.517C1590.96 267.322 1584.02 324.912 1510.34 316.771C1433.38 308.268 1438.22 253.607 1361.44 243.464C1283.33 233.145 1271.67 288.346 1193.8 276.828C1120.52 265.989 1128.81 216.017 1055.6 204.871C976.819 192.875 963.875 248.271 884.757 237.831C806.979 227.567 810.394 174.597 732.653 164.119C652.898 153.37 638.735 210.166 559.669 196.809C489.347 184.93 499.885 138.965 430.023 125.931C347.087 110.459 327.555 166.605 243.136 156.867C155.563 146.766 148.636 89.7992 61.0912 79.3771C-24.3452 69.2061 -43.4834 118.601 -129.003 109.908C-222.359 100.419 -235.15 35.79 -328.158 30.2591C-409.088 25.4465 -493.556 71.208 -493.556 71.208L-497.017 96.8584L-510.435 196.308L1744.86 480.896L1762.71 348.616Z" fill="#7CBEEA"/>
<path d="M1378.9 215.974C1378.9 215.974 1342.5 184.869 1290.74 180.279C1230 174.893 1229.25 209.462 1167.67 207.749C1103.37 205.959 1102.64 173.223 1038.34 170.45C972.929 167.628 968.065 200.976 902.75 197.431C841.279 194.095 843.802 164.003 782.369 160.481C716.253 156.69 710.348 190.209 644.09 187.358C578.955 184.556 577.198 152.886 512.074 149.955C445.263 146.947 438.472 181.351 372.005 176.762C312.889 172.681 317.621 144.878 258.784 140.09C188.938 134.407 177.656 168.652 107.081 166.445C33.8668 164.155 23.2215 130.547 -49.996 128.065C-121.45 125.643 -132.99 155.853 -204.385 154.315C-282.322 152.636 -298.474 114.716 -375.782 115.378C-443.05 115.954 -508.87 146.778 -508.87 146.778L-509.512 162.191L-512 221.947L1375.59 295.457L1378.9 215.974Z" fill="white"/>
<path d="M1378.89 222.832C1378.89 222.832 1342.49 191.727 1290.73 187.137C1230 181.751 1229.24 216.32 1167.67 214.607C1103.36 212.817 1102.64 180.081 1038.34 177.308C972.926 174.486 968.062 207.834 902.746 204.289C841.275 200.953 843.798 170.861 782.365 167.339C716.249 163.548 710.345 197.067 644.087 194.216C578.951 191.414 577.194 159.744 512.071 156.813C445.259 153.805 438.469 188.209 372.002 183.62C312.885 179.539 317.617 151.736 258.781 146.948C188.934 141.265 177.653 175.51 107.077 173.303C33.8634 171.013 23.218 137.405 -49.9994 134.923C-121.453 132.502 -132.993 162.711 -204.388 161.173C-282.325 159.494 -298.477 121.574 -375.785 122.236C-443.054 122.812 -508.873 153.636 -508.873 153.636L-509.515 169.049L-512.003 228.805L1375.59 302.315L1378.89 222.832Z" fill="#5AA8DC"/>
<path d="M902.087 299.862C902.087 299.862 879.116 266.869 842.068 259.352C798.596 250.532 794.224 284.846 749.739 279.628C703.277 274.179 706.373 241.602 660.025 235.175C612.875 228.636 605.658 261.503 558.659 254.251C514.427 247.426 519.585 217.662 475.401 210.654C427.848 203.113 419.857 236.089 372.098 229.473C325.148 222.97 327.375 191.394 280.448 184.762C232.304 177.959 223.573 211.765 175.854 203.41C133.412 195.979 139.92 168.616 97.7597 160.499C47.7096 150.864 35.737 184.255 -15.2262 178.032C-68.0946 171.577 -72.1018 137.567 -124.952 130.921C-176.529 124.435 -188.242 153.801 -239.874 148.196C-296.237 142.078 -303.763 103.469 -359.928 99.7131C-408.8 96.4452 -459.965 123.324 -459.965 123.324L-462.135 138.605L-470.549 197.854L890.896 378.669L902.087 299.862Z" fill="white"/>
<path d="M902.087 306.862C902.087 306.862 879.116 273.869 842.068 266.352C798.596 257.532 794.224 291.846 749.739 286.628C703.277 281.179 706.373 248.602 660.025 242.175C612.875 235.636 605.658 268.503 558.659 261.251C514.427 254.426 519.585 224.662 475.401 217.654C427.848 210.113 419.857 243.089 372.098 236.473C325.148 229.97 327.375 198.394 280.448 191.762C232.304 184.959 223.573 218.765 175.854 210.41C133.412 202.979 139.92 175.616 97.7597 167.499C47.7096 157.864 35.737 191.255 -15.2262 185.032C-68.0946 178.577 -72.1018 144.567 -124.952 137.921C-176.529 131.435 -188.242 160.801 -239.874 155.196C-296.237 149.078 -303.763 110.469 -359.928 106.713C-408.8 103.445 -459.965 130.324 -459.965 130.324L-462.135 145.605L-470.549 204.854L890.896 385.669L902.087 306.862Z" fill="#1B51A0"/>
<path d="M819.798 255.348C819.798 255.348 795.141 233.902 761.159 232.042C721.284 229.86 721.731 254.853 681.409 255.348C639.295 255.864 637.93 232.236 595.795 232.042C552.929 231.844 550.656 256.071 507.836 255.348C467.535 254.667 468.366 232.858 428.086 232.042C384.735 231.164 381.785 255.543 338.367 255.348C295.685 255.156 293.672 232.328 250.994 232.042C207.21 231.749 203.705 256.793 160.103 255.348C121.322 254.063 123.66 233.845 85.0439 232.042C39.201 229.901 32.7543 254.957 -13.4706 255.348C-61.4235 255.753 -69.3022 231.775 -117.263 232.042C-164.068 232.303 -170.794 254.45 -217.536 255.348C-268.562 256.327 -280.16 229.389 -330.711 232.042C-374.697 234.35 -416.911 258.469 -416.911 258.469V269.621V312.858H819.798V255.348Z" fill="white"/>
<path d="M819.798 262.348C819.798 262.348 795.141 240.902 761.159 239.042C721.284 236.86 721.731 261.853 681.409 262.348C639.295 262.864 637.93 239.236 595.795 239.042C552.929 238.844 550.656 263.071 507.836 262.348C467.535 261.667 468.366 239.858 428.086 239.042C384.735 238.164 381.785 262.543 338.367 262.348C295.685 262.156 293.672 239.328 250.994 239.042C207.21 238.749 203.705 263.793 160.103 262.348C121.322 261.063 123.66 240.845 85.0439 239.042C39.201 236.901 32.7543 261.957 -13.4706 262.348C-61.4235 262.753 -69.3022 238.775 -117.263 239.042C-164.068 239.303 -170.794 261.45 -217.536 262.348C-268.562 263.327 -280.16 236.389 -330.711 239.042C-374.697 241.35 -416.911 265.469 -416.911 265.469V276.621V319.858H819.798V262.348Z" fill="#0D408A"/>
</svg>
