<svg width="414" height="453" viewBox="0 0 414 453" fill="none" xmlns="http://www.w3.org/2000/svg">
<path opacity="0.8" d="M-1259.95 320.616C-1259.95 320.616 -1222.9 265.614 -1163.53 253.517C-1093.86 239.322 -1087.15 296.912 -1015.89 288.771C-941.461 280.268 -946.145 225.607 -871.893 215.464C-796.355 205.145 -785.076 260.346 -709.774 248.828C-638.905 237.989 -646.915 188.017 -576.122 176.871C-499.932 164.875 -487.414 220.271 -410.9 209.831C-335.683 199.567 -338.986 146.597 -263.804 136.119C-186.674 125.37 -172.977 182.166 -96.5136 168.809C-28.5061 156.93 -38.6974 110.965 28.8651 97.9313C109.071 82.4588 127.96 138.605 209.6 128.867C294.291 118.766 300.989 61.7992 385.652 51.3772C468.276 41.2061 486.785 90.6005 569.489 81.9082C659.772 72.4193 672.142 7.78997 762.089 2.25912C840.355 -2.55345 922.042 43.208 922.042 43.208L925.389 68.8584L938.366 168.308L-1242.69 452.896L-1259.95 320.616Z" fill="#7CBEEA"/>
<path d="M-888.773 194.832C-888.773 194.832 -853.57 163.727 -803.514 159.137C-744.779 153.751 -744.047 188.32 -684.502 186.607C-622.311 184.817 -621.611 152.081 -559.428 149.308C-496.167 146.486 -491.464 179.834 -428.298 176.289C-368.85 172.953 -371.29 142.861 -311.88 139.339C-247.94 135.548 -242.23 169.067 -178.153 166.216C-115.162 163.414 -113.462 131.744 -50.4823 128.813C14.1296 125.805 20.6964 160.209 84.9757 155.62C142.146 151.539 137.57 123.736 194.47 118.948C262.017 113.265 272.928 147.51 341.18 145.303C411.983 143.013 422.278 109.405 493.086 106.923C562.188 104.502 573.348 134.711 642.393 133.173C717.764 131.494 733.384 93.5744 808.147 94.2359C873.201 94.8116 936.855 125.636 936.855 125.636L937.475 141.049L939.882 200.805L-885.572 274.315L-888.773 194.832Z" fill="#5AA8DC"/>
<path d="M-427.66 278.862C-427.66 278.862 -405.445 245.869 -369.616 238.352C-327.576 229.532 -323.348 263.846 -280.327 258.628C-235.395 253.179 -238.388 220.602 -193.566 214.175C-147.968 207.636 -140.989 240.502 -95.5369 233.251C-52.7603 226.426 -57.7491 196.662 -15.0192 189.654C30.9681 182.113 38.6959 215.089 84.8832 208.473C130.288 201.97 128.134 170.393 173.517 163.762C220.075 156.959 228.519 190.765 274.668 182.41C315.712 174.979 309.418 147.616 350.191 139.499C398.593 129.864 410.172 163.255 459.458 157.032C510.586 150.577 514.461 116.567 565.571 109.921C615.45 103.435 626.779 132.801 676.711 127.196C731.218 121.078 738.497 82.4687 792.813 78.713C840.076 75.4451 889.557 102.324 889.557 102.324L891.656 117.605L899.792 176.854L-416.837 357.669L-427.66 278.862Z" fill="#1B51A0"/>
<path d="M-348 244.06C-348 244.06 -324.154 213.876 -291.291 211.259C-252.729 208.188 -253.161 243.363 -214.166 244.06C-173.439 244.787 -172.119 211.533 -131.37 211.259C-89.9157 210.98 -87.7176 245.077 -46.3063 244.06C-7.33258 243.102 -8.13605 212.407 30.8184 211.259C72.7425 210.023 75.5947 244.334 117.584 244.06C158.861 243.789 160.807 211.661 202.081 211.259C244.424 210.847 247.813 246.093 289.98 244.06C327.484 242.251 325.223 213.796 362.568 211.259C406.902 208.246 413.136 243.509 457.84 244.06C504.214 244.631 511.833 210.883 558.215 211.259C603.48 211.626 609.984 242.797 655.188 244.06C704.534 245.438 715.751 207.525 764.637 211.259C807.175 214.508 848 248.453 848 248.453V264.148V325H-348V244.06Z" fill="#0D408A"/>
</svg>
