<svg width="414" height="455" viewBox="0 0 414 455" fill="none" xmlns="http://www.w3.org/2000/svg">
<path opacity="0.8" d="M-1424.95 322.616C-1424.95 322.616 -1387.9 267.614 -1328.53 255.517C-1258.86 241.322 -1252.15 298.912 -1180.89 290.771C-1106.46 282.268 -1111.14 227.607 -1036.89 217.464C-961.355 207.145 -950.076 262.346 -874.774 250.828C-803.905 239.989 -811.915 190.017 -741.122 178.871C-664.932 166.875 -652.414 222.271 -575.9 211.831C-500.683 201.567 -503.986 148.597 -428.804 138.119C-351.674 127.37 -337.977 184.166 -261.514 170.809C-193.506 158.93 -203.697 112.965 -136.135 99.9313C-55.929 84.4588 -37.0398 140.605 44.5996 130.867C129.291 120.766 135.989 63.7992 220.652 53.3772C303.276 43.2061 321.785 92.6005 404.489 83.9082C494.772 74.4193 507.142 9.78997 597.089 4.25912C675.355 -0.553454 757.042 45.208 757.042 45.208L760.389 70.8584L773.366 170.308L-1407.69 454.896L-1424.95 322.616Z" fill="#7CBEEA"/>
<path d="M-1053.77 196.832C-1053.77 196.832 -1018.57 165.727 -968.514 161.137C-909.779 155.751 -909.047 190.32 -849.502 188.607C-787.311 186.817 -786.611 154.081 -724.428 151.308C-661.167 148.486 -656.464 181.834 -593.298 178.289C-533.85 174.953 -536.29 144.861 -476.88 141.339C-412.94 137.548 -407.23 171.067 -343.153 168.216C-280.162 165.414 -278.462 133.744 -215.482 130.813C-150.87 127.805 -144.304 162.209 -80.0243 157.62C-22.8537 153.539 -27.4301 125.736 29.4695 120.948C97.0171 115.265 107.928 149.51 176.18 147.303C246.983 145.013 257.278 111.405 328.086 108.923C397.188 106.502 408.348 136.711 477.393 135.173C552.764 133.494 568.384 95.5744 643.147 96.2359C708.201 96.8116 771.855 127.636 771.855 127.636L772.475 143.049L774.882 202.805L-1050.57 276.315L-1053.77 196.832Z" fill="#5AA8DC"/>
<path d="M-592.66 280.862C-592.66 280.862 -570.445 247.869 -534.616 240.352C-492.576 231.532 -488.348 265.846 -445.327 260.628C-400.395 255.179 -403.388 222.602 -358.566 216.175C-312.968 209.636 -305.989 242.502 -260.537 235.251C-217.76 228.426 -222.749 198.662 -180.019 191.654C-134.032 184.113 -126.304 217.089 -80.1168 210.473C-34.7122 203.97 -36.866 172.393 8.51666 165.762C55.0753 158.959 63.5194 192.765 109.668 184.41C150.712 176.979 144.418 149.616 185.191 141.499C233.593 131.864 245.172 165.255 294.458 159.032C345.586 152.577 349.461 118.567 400.571 111.921C450.45 105.435 461.779 134.801 511.711 129.196C566.218 123.078 573.497 84.4687 627.813 80.713C675.076 77.4451 724.557 104.324 724.557 104.324L726.656 119.605L734.792 178.854L-581.837 359.669L-592.66 280.862Z" fill="#1B51A0"/>
<path d="M-513.08 236.348C-513.08 236.348 -489.234 214.902 -456.371 213.042C-417.809 210.86 -418.241 235.853 -379.246 236.348C-338.519 236.864 -337.199 213.236 -296.45 213.042C-254.996 212.844 -252.798 237.071 -211.386 236.348C-172.413 235.667 -173.216 213.858 -134.262 213.042C-92.3376 212.164 -89.4854 236.543 -47.4964 236.348C-6.21881 236.156 -4.27298 213.328 37.0005 213.042C79.3436 212.749 82.7329 237.793 124.9 236.348C162.404 235.063 160.143 214.845 197.488 213.042C241.822 210.901 248.056 235.957 292.76 236.348C339.134 236.753 346.753 212.775 393.135 213.042C438.4 213.303 444.904 235.45 490.108 236.348C539.454 237.327 550.671 210.389 599.557 213.042C642.095 215.35 682.92 239.469 682.92 239.469V250.621V293.858H-513.08V236.348Z" fill="#0D408A"/>
</svg>
