<svg width="414" height="509" viewBox="0 0 414 509" fill="none" xmlns="http://www.w3.org/2000/svg">
<path opacity="0.8" d="M-2037.1 493.423C-2037.1 493.423 -1979.83 408.402 -1888.06 389.702C-1780.37 367.76 -1769.99 456.781 -1659.84 444.196C-1544.79 431.053 -1552.03 346.56 -1437.26 330.881C-1320.49 314.93 -1303.06 400.258 -1186.66 382.455C-1077.11 365.7 -1089.49 288.455 -980.062 271.226C-862.29 252.683 -842.94 338.313 -724.667 322.174C-608.399 306.309 -613.504 224.429 -497.291 208.233C-378.066 191.617 -356.893 279.411 -238.699 258.764C-133.575 240.401 -149.328 169.35 -44.8922 149.203C79.0875 125.286 108.286 212.075 234.481 197.023C365.395 181.408 375.749 93.3512 506.618 77.2411C634.336 61.519 662.946 137.871 790.788 124.435C930.344 109.767 949.465 9.86537 1088.5 1.31597C1209.48 -6.12317 1335.75 64.6135 1335.75 64.6135L1340.93 104.263L1360.99 257.989L-2010.42 697.896L-2037.1 493.423Z" fill="#356FB3"/>
</svg>
