<svg width="414" height="279" viewBox="0 0 414 279" fill="none" xmlns="http://www.w3.org/2000/svg">
<path d="M-1463.35 155.989C-1463.35 155.989 -1408.93 107.908 -1331.56 100.812C-1240.77 92.4865 -1239.63 145.922 -1147.59 143.274C-1051.46 140.508 -1050.38 89.9053 -954.257 85.6185C-856.47 81.2573 -849.2 132.806 -751.56 127.326C-659.668 122.169 -663.44 75.6535 -571.604 70.2092C-472.768 64.3499 -463.941 116.162 -364.893 111.755C-267.524 107.423 -264.897 58.4693 -167.544 53.9379C-67.6694 49.2891 -57.5185 102.469 41.8423 95.3761C130.215 89.0676 123.141 46.0904 211.095 38.6903C315.507 29.9054 332.372 82.8398 437.875 79.428C547.321 75.8888 563.234 23.9382 672.686 20.1022C779.502 16.3587 796.752 63.0561 903.48 60.6783C1019.99 58.0827 1044.13 -0.532196 1159.7 0.490464C1260.26 1.38031 1358.65 49.0279 1358.65 49.0279L1359.61 72.8521L1363.33 165.222L-1458.4 278.851L-1463.35 155.989Z" fill="#5AA8DC" fill-opacity="0.7"/>
</svg>
