<svg xmlns="http://www.w3.org/2000/svg" fill="none" viewBox="0 107.80000000000001 413.992453125 365.43445399999996" style="max-height: 500px" width="413.992453125" height="365.43445399999996">
<path fill="#356FB3" d="M-2037.1 523.423C-2037.1 523.423 -1979.83 438.402 -1888.06 419.702C-1780.37 397.76 -1769.99 486.781 -1659.84 474.196C-1544.79 461.053 -1552.03 376.56 -1437.26 360.881C-1320.49 344.93 -1303.06 430.258 -1186.66 412.455C-1077.11 395.7 -1089.49 318.455 -980.062 301.226C-862.29 282.683 -842.94 368.313 -724.667 352.174C-608.399 336.309 -613.504 254.429 -497.291 238.233C-378.066 221.617 -356.893 309.411 -238.699 288.764C-133.575 270.401 -149.328 199.35 -44.8922 179.203C79.0875 155.286 108.286 242.075 234.481 227.023C365.395 211.408 375.749 123.351 506.618 107.241C634.336 91.519 662.946 167.871 790.788 154.435C930.344 139.767 949.465 39.8654 1088.5 31.316C1209.48 23.8768 1335.75 94.6135 1335.75 94.6135L1340.93 134.263L1360.99 287.989L-2010.42 727.896L-2037.1 523.423Z" opacity="0.8"/>
<path fill-opacity="0.7" fill="#5AA8DC" d="M-1463.35 328.989C-1463.35 328.989 -1408.93 280.908 -1331.56 273.812C-1240.77 265.486 -1239.63 318.922 -1147.59 316.274C-1051.46 313.508 -1050.38 262.905 -954.257 258.618C-856.47 254.257 -849.2 305.806 -751.56 300.326C-659.668 295.169 -663.44 248.653 -571.604 243.209C-472.768 237.35 -463.941 289.162 -364.893 284.755C-267.524 280.423 -264.897 231.469 -167.544 226.938C-67.6694 222.289 -57.5185 275.469 41.8423 268.376C130.215 262.068 123.141 219.09 211.095 211.69C315.507 202.905 332.372 255.84 437.875 252.428C547.321 248.889 563.234 196.938 672.686 193.102C779.502 189.359 796.752 236.056 903.48 233.678C1019.99 231.083 1044.13 172.468 1159.7 173.49C1260.26 174.38 1358.65 222.028 1358.65 222.028L1359.61 245.852L1363.33 338.222L-1458.4 451.851L-1463.35 328.989Z"/>
<path fill="#A3D0EF" d="M-750.573 446.514C-750.573 446.514 -716.234 395.514 -660.852 383.895C-595.867 370.261 -589.331 423.303 -522.831 415.237C-453.376 406.814 -458.003 356.457 -388.719 346.522C-318.234 336.415 -307.446 387.219 -237.188 376.01C-171.066 365.46 -178.777 319.451 -112.727 308.62C-41.6409 296.962 -29.6955 347.936 41.6994 337.709C111.885 327.656 108.555 278.847 178.706 268.596C250.675 258.081 263.728 310.336 335.062 297.421C398.508 285.935 388.779 243.638 451.804 231.091C526.623 216.197 544.521 267.812 620.705 258.193C699.737 248.215 705.727 195.643 784.732 185.37C861.834 175.344 879.344 220.737 956.528 212.074C1040.78 202.617 1052.03 142.935 1136 137.13C1209.05 132.079 1285.54 173.627 1285.54 173.627L1288.78 197.248L1301.36 288.833L-733.844 568.332L-750.573 446.514Z"/>
<path fill="#D5E7F4" d="M-627.776 389.09C-627.776 389.09 -590.911 357.053 -540.104 354.275C-480.488 351.015 -481.156 388.351 -420.871 389.09C-357.907 389.861 -355.866 354.565 -292.87 354.275C-228.782 353.979 -225.383 390.17 -161.362 389.09C-101.109 388.073 -102.351 355.494 -42.1282 354.275C22.6859 352.963 27.0954 389.381 92.0098 389.09C155.824 388.803 158.833 354.701 222.641 354.275C288.103 353.837 293.343 391.248 358.532 389.09C416.513 387.17 413.017 356.968 470.752 354.275C539.292 351.077 548.93 388.505 618.041 389.09C689.735 389.696 701.515 353.876 773.22 354.275C843.199 354.664 853.254 387.749 923.139 389.09C999.428 390.553 1016.77 350.312 1092.35 354.275C1158.11 357.723 1221.22 393.752 1221.22 393.752V410.411V475H-627.776V389.09Z"/>
</svg>