<svg width="414" height="403" viewBox="0 0 414 403" fill="none" xmlns="http://www.w3.org/2000/svg">
<path d="M-750.573 310.514C-750.573 310.514 -716.234 259.514 -660.852 247.895C-595.867 234.261 -589.331 287.303 -522.831 279.237C-453.376 270.814 -458.003 220.457 -388.719 210.522C-318.234 200.415 -307.446 251.219 -237.188 240.01C-171.066 229.46 -178.777 183.451 -112.727 172.62C-41.6409 160.962 -29.6955 211.936 41.6994 201.709C111.885 191.656 108.555 142.847 178.706 132.596C250.675 122.081 263.728 174.336 335.062 161.421C398.508 149.935 388.779 107.638 451.804 95.0914C526.623 80.1969 544.521 131.812 620.705 122.193C699.737 112.215 705.727 59.643 784.732 49.3697C861.834 39.3439 879.344 84.7372 956.528 76.074C1040.78 66.617 1052.03 6.93542 1136 1.13003C1209.05 -3.92145 1285.54 37.6265 1285.54 37.6265L1288.78 61.2483L1301.36 152.833L-733.844 432.332L-750.573 310.514Z" fill="#A3D0EF"/>
</svg>
