<svg width="414" height="121" viewBox="0 0 414 121" fill="none" xmlns="http://www.w3.org/2000/svg">
<path d="M-627.776 35.0896C-627.776 35.0896 -590.911 3.05288 -540.104 0.274736C-480.488 -2.98513 -481.156 34.3507 -420.871 35.0896C-357.907 35.8613 -355.866 0.565249 -292.87 0.274736C-228.782 -0.0208124 -225.383 36.17 -161.362 35.0896C-101.109 34.0728 -102.351 1.49371 -42.1282 0.274736C22.6859 -1.03716 27.0954 35.3813 92.0098 35.0896C155.824 34.8027 158.833 0.701323 222.641 0.274736C288.103 -0.162904 293.343 37.2479 358.532 35.0896C416.513 33.1699 413.017 2.96821 470.752 0.274736C539.292 -2.92278 548.93 34.5054 618.041 35.0896C689.735 35.6956 701.515 -0.124338 773.22 0.274736C843.199 0.664198 853.254 33.7491 923.139 35.0896C999.428 36.5528 1016.77 -3.68806 1092.35 0.274736C1158.11 3.72291 1221.22 39.7523 1221.22 39.7523V56.4112V121H-627.776V35.0896Z" fill="#D5E7F4"/>
</svg>
